<svg width="25" height="26" viewBox="0 0 25 26" fill="none" xmlns="http://www.w3.org/2000/svg">
<path fill-rule="evenodd" clip-rule="evenodd" d="M25 13.1962C25 19.9807 19.4036 25.4807 12.5 25.4807C5.59644 25.4807 0 19.9807 0 13.1962C0 6.41168 5.59644 0.911743 12.5 0.911743C19.4036 0.911743 25 6.41168 25 13.1962ZM16.8964 22.8013C15.555 23.3952 14.0668 23.7257 12.5 23.7257C9.91346 23.7257 7.54099 22.825 5.68964 21.3253C7.61557 18.1492 10.7133 15.7411 14.3956 14.6757C15.4532 17.2835 16.2941 19.9992 16.8964 22.8013ZM18.5256 21.904C17.9322 19.2815 17.1366 16.7339 16.1558 14.2779C16.9723 14.1436 17.811 14.0737 18.6663 14.0737C20.2112 14.0737 21.7006 14.3015 23.1023 14.7243C22.6614 17.7048 20.9501 20.2806 18.5256 21.904ZM23.2109 12.9271C21.7641 12.5305 20.2398 12.3187 18.6663 12.3187C17.5694 12.3187 16.4971 12.4216 15.4586 12.6179C15.1877 12.0036 14.9051 11.3954 14.611 10.7937C16.9486 9.77399 19.1089 8.43318 21.0337 6.82838C22.3506 8.53022 23.1524 10.6379 23.2109 12.9271ZM19.838 5.52379C18.031 7.02398 16.0033 8.275 13.8096 9.22311C12.6515 7.04682 11.3408 4.96152 9.89141 2.98094C10.7264 2.77566 11.6003 2.66667 12.5 2.66667C15.3394 2.66667 17.9208 3.7521 19.838 5.52379ZM8.12726 3.58064C4.98191 4.96421 2.63935 7.79455 1.97598 11.2104C2.58552 11.2544 3.20131 11.2768 3.82256 11.2768C6.74034 11.2768 9.54023 10.7825 12.1405 9.87427C10.9595 7.67445 9.61657 5.57148 8.12726 3.58064ZM1.78844 12.9564C1.78663 13.0361 1.78571 13.1161 1.78571 13.1962C1.78571 15.8216 2.76343 18.2226 4.38054 20.0667C6.51074 16.7493 9.80536 14.2246 13.7011 13.048C13.4606 12.5111 13.2107 11.9792 12.9518 11.4524C10.1043 12.4741 7.02945 13.0317 3.82256 13.0317C3.13833 13.0317 2.45998 13.0063 1.78844 12.9564Z" fill="#FFEDCB"/>
</svg>
