<svg width="340" height="348" viewBox="0 0 340 348" fill="none" xmlns="http://www.w3.org/2000/svg">
<path fill-rule="evenodd" clip-rule="evenodd" d="M307.79 256.503C278.659 297.929 230.491 325 176 325C87.0822 325 15 252.918 15 164C15 137.919 21.2014 113.287 32.2102 91.4969C61.341 50.0706 109.509 23 164 23C252.918 23 325 95.0822 325 184C325 210.081 318.799 234.713 307.79 256.503ZM318.652 238.713C324.706 221.601 328 203.185 328 184C328 93.4253 254.575 20 164 20C116.016 20 72.8449 40.6076 42.8545 73.4553C71.8326 30.9258 120.655 3 176 3C264.918 3 337 75.0822 337 164C337 190.967 330.37 216.385 318.652 238.713ZM310.371 258.048C329.042 231.421 340 198.99 340 164C340 73.4253 266.575 0 176 0C112.07 0 56.683 36.5802 29.6292 89.9517C10.9579 116.579 0 149.01 0 184C0 274.575 73.4253 348 164 348C227.93 348 283.317 311.42 310.371 258.048ZM297.145 274.545C267.155 307.392 223.984 328 176 328C85.4253 328 12 254.575 12 164C12 144.815 15.2944 126.399 21.3483 109.287C9.62979 131.615 3 157.033 3 184C3 272.918 75.0822 345 164 345C219.345 345 268.167 317.074 297.145 274.545Z" fill="#95ADCF"/>
</svg>
