<svg width="501" height="501" viewBox="0 0 501 501" fill="none" xmlns="http://www.w3.org/2000/svg">
<path d="M250.617 500.589C186.316 500.51 124.507 475.749 77.9268 431.421C31.3528 387.093 3.57481 326.581 0.321806 262.361C-2.93209 198.146 18.5878 135.131 60.4388 86.3206C102.294 37.5116 161.289 6.62961 225.249 0.0506059C229.124 -0.379084 232.768 1.96471 233.983 5.66781C235.198 9.37091 233.647 13.4178 230.272 15.367C197.788 34.734 171.991 63.555 156.331 97.976C140.671 132.402 135.893 170.785 142.636 207.996C149.382 245.207 167.327 279.473 194.074 306.211C220.82 332.949 255.094 350.883 292.308 357.613C329.523 364.347 367.906 359.558 402.328 343.886C436.746 328.214 465.558 302.406 484.914 269.917C486.883 266.601 490.887 265.097 494.551 266.292C498.278 267.483 500.653 271.132 500.231 275.022C494.145 336.936 465.196 394.353 419.04 436.062C372.884 477.772 312.83 500.778 250.62 500.583L250.617 500.589ZM192.969 22.4486C139.242 36.1046 92.0888 68.3586 59.8888 113.484C27.6858 158.609 12.5138 213.684 17.0648 268.934C21.6158 324.184 45.5958 376.034 84.7528 415.274C123.909 454.52 175.702 478.622 230.943 483.301C286.184 487.98 341.293 472.934 386.493 440.836C431.692 408.738 464.055 361.66 477.837 307.966C453.357 335.462 421.829 355.751 386.657 366.638C351.485 377.529 314.012 378.599 278.277 369.743C242.543 360.888 209.906 342.434 183.89 316.384C157.874 290.329 139.472 257.669 130.667 221.919C121.858 186.169 122.987 148.696 133.925 113.539C144.866 78.3871 165.198 46.8871 192.734 22.4451L192.969 22.4486Z" fill="black"/>
</svg>
