<svg width="24" height="20" viewBox="0 0 24 20" fill="none" xmlns="http://www.w3.org/2000/svg">
<path d="M24 2.47402C23.117 2.85926 22.168 3.1187 21.172 3.23565C22.189 2.63715 22.97 1.68879 23.337 0.558626C22.386 1.1129 21.332 1.51583 20.21 1.73302C19.313 0.792522 18.032 0.204834 16.616 0.204834C13.437 0.204834 11.101 3.11969 11.819 6.14559C7.728 5.94413 4.1 4.01793 1.671 1.0903C0.381 3.26513 1.002 6.11021 3.194 7.55093C2.388 7.52538 1.628 7.30819 0.965 6.94555C0.911 9.18722 2.546 11.2844 4.914 11.7512C4.221 11.936 3.462 11.9792 2.69 11.8338C3.316 13.756 5.134 15.1545 7.29 15.1938C5.22 16.7888 2.612 17.5013 0 17.1986C2.179 18.5716 4.768 19.3725 7.548 19.3725C16.69 19.3725 21.855 11.7846 21.543 4.97906C22.505 4.29604 23.34 3.444 24 2.47402Z" fill="#FFEDCB"/>
</svg>
