<svg width="24" height="24" viewBox="0 0 24 24" fill="none" xmlns="http://www.w3.org/2000/svg">
<path d="M12 0.549438C5.374 0.549438 0 5.82979 0 12.3425C0 17.5531 3.438 21.9735 8.207 23.5331C8.806 23.6422 9 23.2767 9 22.9661V20.7706C5.662 21.4841 4.967 19.379 4.967 19.379C4.421 18.016 3.634 17.6533 3.634 17.6533C2.545 16.9212 3.717 16.9369 3.717 16.9369C4.922 17.0194 5.556 18.1526 5.556 18.1526C6.626 19.9549 8.363 19.4341 9.048 19.1324C9.155 18.3707 9.466 17.8499 9.81 17.556C7.145 17.2563 4.343 16.245 4.343 11.7273C4.343 10.4389 4.812 9.38736 5.579 8.56185C5.455 8.26407 5.044 7.06413 5.696 5.44061C5.696 5.44061 6.704 5.12417 8.997 6.6494C9.954 6.38799 10.98 6.25728 12 6.25237C13.02 6.25728 14.047 6.38799 15.006 6.6494C17.297 5.12417 18.303 5.44061 18.303 5.44061C18.956 7.06511 18.545 8.26505 18.421 8.56185C19.191 9.38736 19.656 10.4399 19.656 11.7273C19.656 16.2568 16.849 17.2543 14.177 17.5462C14.607 17.9118 15 18.6292 15 19.7299V22.9661C15 23.2796 15.192 23.6481 15.801 23.5322C20.566 21.9706 24 17.5511 24 12.3425C24 5.82979 18.627 0.549438 12 0.549438Z" fill="#FFEDCB"/>
</svg>
